<?xml version="1.0" encoding="UTF-8"?>
<!-- Generator: visioncortex VTracer 0.6.5 -->
<svg version="1.1" xmlns="http://www.w3.org/2000/svg" viewBox="341 286 343 453">
<path d="M0 0 C0.79 -0 1.57 -0.01 2.38 -0.01 C5.03 -0.02 7.69 -0.02 10.34 -0.02 C12.23 -0.03 14.13 -0.03 16.02 -0.04 C21.19 -0.05 26.36 -0.06 31.52 -0.06 C34.76 -0.06 37.99 -0.07 41.23 -0.07 C51.37 -0.08 61.51 -0.09 71.65 -0.1 C83.31 -0.1 94.98 -0.12 106.64 -0.15 C115.68 -0.17 124.71 -0.18 133.75 -0.18 C139.13 -0.18 144.52 -0.19 149.9 -0.21 C154.99 -0.22 160.07 -0.23 165.16 -0.22 C167.01 -0.22 168.86 -0.22 170.71 -0.23 C188.47 -0.32 206.41 1.12 223.4 6.58 C223.94 6.75 223.94 6.75 226.66 7.61 C264.51 20.2 295.7 47.87 313.65 83.33 C319.37 95.08 322.98 107.34 325.47 120.14 C325.58 120.72 325.58 120.72 326.15 123.67 C329.01 141.28 328.68 159.8 324.47 177.14 C324.3 177.86 324.13 178.57 323.96 179.31 C314.95 217.49 290.31 251.06 256.96 271.69 C239.32 281.93 220.51 288.57 200.47 292.14 C199.62 292.31 198.77 292.48 197.89 292.65 C186.51 294.61 175.11 294.44 163.6 294.45 C159.77 294.45 155.94 294.47 152.11 294.49 C142.62 294.53 133.12 294.57 123.63 294.59 C115.57 294.61 107.52 294.63 99.46 294.68 C96.92 294.69 94.38 294.7 91.84 294.7 C88.3 294.7 84.77 294.72 81.23 294.74 C80.18 294.74 79.13 294.73 78.05 294.73 C77.09 294.74 76.13 294.75 75.14 294.76 C74.72 294.76 74.72 294.76 72.61 294.76 C70.47 295.14 70.47 295.14 68.7 296.3 C66.94 298.93 67.1 300.89 67.1 304.05 C67.1 305.28 67.09 306.52 67.09 307.79 C67.09 309.16 67.1 310.53 67.11 311.9 C67.11 313.34 67.11 314.78 67.11 316.22 C67.1 319.32 67.11 322.42 67.12 325.53 C67.13 330.44 67.12 335.34 67.11 340.25 C67.08 353.33 67.08 366.4 67.1 379.48 C67.11 388.07 67.11 396.66 67.08 405.24 C67.07 410.12 67.08 415 67.1 419.88 C67.11 422.92 67.1 425.95 67.08 428.99 C67.08 430.4 67.09 431.8 67.1 433.21 C67.2 443.98 67.2 443.98 64.35 448.48 C60.85 450.5 58.68 450.77 54.64 450.77 C54.31 450.78 54.31 450.78 52.63 450.79 C50.44 450.81 48.25 450.79 46.06 450.77 C44.53 450.77 43 450.77 41.48 450.78 C38.28 450.78 35.08 450.76 31.88 450.74 C27.79 450.7 23.7 450.71 19.61 450.73 C16.45 450.74 13.3 450.73 10.15 450.71 C8.64 450.71 7.13 450.71 5.62 450.72 C3.51 450.72 1.4 450.7 -0.71 450.67 C-1.91 450.67 -3.11 450.66 -4.35 450.66 C-8.15 450.04 -9.81 448.81 -12.53 446.14 C-14.21 442.78 -13.7 438.98 -13.71 435.28 C-13.71 434.82 -13.71 434.82 -13.73 432.5 C-13.75 429.44 -13.76 426.38 -13.77 423.32 C-13.78 422.27 -13.78 421.21 -13.78 420.13 C-13.8 414.55 -13.82 408.97 -13.83 403.38 C-13.84 397.67 -13.87 391.97 -13.91 386.26 C-13.94 381.83 -13.95 377.39 -13.95 372.96 C-13.96 370.86 -13.97 368.76 -13.99 366.66 C-14.31 328.6 -3.48 293.29 21.47 264.14 C22.16 263.32 22.86 262.5 23.58 261.66 C46.51 235.42 78.85 219.04 113.47 215.14 C118.37 214.9 123.27 214.84 128.18 214.84 C130.57 214.83 132.95 214.81 135.34 214.79 C142.11 214.74 148.89 214.71 155.66 214.68 C159.83 214.67 164 214.64 168.17 214.6 C169.75 214.59 171.32 214.58 172.89 214.58 C182.12 214.58 190.58 213.94 199.47 211.14 C200.66 210.76 201.86 210.39 203.1 210 C210.52 207.19 217.01 203.77 223.47 199.14 C224.11 198.68 224.76 198.22 225.42 197.75 C233.64 191.31 239.54 181.69 243.47 172.14 C243.86 171.2 244.25 170.25 244.66 169.28 C249.35 155.88 250.41 136.96 244.78 123.75 C244.35 122.89 243.91 122.03 243.47 121.14 C242.99 120.09 242.52 119.05 242.03 117.97 C234.04 101.61 221.09 90.48 204.15 84.2 C196.12 81.5 188.46 79.83 179.98 79.89 C179.57 79.89 179.57 79.89 177.54 79.88 C174.87 79.87 172.2 79.88 169.53 79.89 C167.61 79.88 165.68 79.88 163.76 79.87 C159.63 79.87 155.5 79.86 151.37 79.87 C144.84 79.87 138.31 79.85 131.78 79.84 C113.22 79.79 94.65 79.77 76.09 79.76 C65.83 79.76 55.56 79.74 45.3 79.7 C38.81 79.68 32.32 79.68 25.82 79.69 C21.79 79.7 17.76 79.68 13.72 79.66 C11.85 79.66 9.98 79.66 8.11 79.67 C5.55 79.68 3 79.67 0.45 79.65 C-0.29 79.66 -1.04 79.66 -1.8 79.67 C-6.65 79.6 -9.13 78.59 -12.53 75.14 C-13.94 72.33 -13.68 69.98 -13.71 66.84 C-13.71 66.52 -13.71 66.52 -13.73 64.89 C-13.75 62.75 -13.76 60.61 -13.77 58.46 C-13.78 57.73 -13.78 57 -13.78 56.25 C-13.8 52.38 -13.82 48.51 -13.83 44.64 C-13.84 40.64 -13.87 36.65 -13.91 32.65 C-13.94 29.58 -13.95 26.51 -13.95 23.43 C-13.96 21.96 -13.97 20.49 -13.99 19.02 C-14.01 16.95 -14.01 14.89 -14 12.83 C-14.01 11.65 -14.02 10.48 -14.02 9.27 C-13.43 5.49 -12.18 3.85 -9.53 1.14 C-6.49 -0.38 -3.33 -0 0 0 Z " fill="#193335" transform="translate(355.53,286.86)"/>
<path d="M0 0 C0.78 -0 1.55 -0.01 2.35 -0.01 C4.96 -0.02 7.57 -0.03 10.19 -0.03 C12.05 -0.04 13.92 -0.04 15.79 -0.05 C21.94 -0.07 28.09 -0.08 34.24 -0.09 C36.36 -0.1 38.48 -0.1 40.6 -0.1 C50.56 -0.12 60.52 -0.14 70.49 -0.15 C81.97 -0.15 93.45 -0.18 104.94 -0.22 C113.82 -0.25 122.7 -0.27 131.59 -0.27 C136.89 -0.27 142.19 -0.28 147.49 -0.31 C152.49 -0.33 157.48 -0.33 162.48 -0.32 C164.31 -0.32 166.13 -0.33 167.95 -0.34 C186.48 -0.48 203.14 2.51 217.23 15.5 C226.88 25.02 231.64 36.41 231.95 49.83 C231.92 63.98 226.64 75.86 217.2 86.27 C213.07 90.21 208.8 93 203.76 95.58 C203.45 95.74 203.45 95.74 201.9 96.55 C191.17 101.66 179.86 102.58 168.16 102.53 C165.82 102.52 163.47 102.53 161.12 102.54 C154.46 102.58 147.8 102.59 141.13 102.58 C90.31 102.59 49.21 115.22 12.68 151.66 C7.03 157.48 2.33 163.87 -2.29 170.52 C-3.85 172.75 -5.48 174.92 -7.12 177.08 C-7.88 178.1 -8.64 179.11 -9.43 180.15 C-10.75 179.49 -12.07 178.83 -13.43 178.15 C-13.52 155.81 -13.59 133.47 -13.64 111.13 C-13.66 100.76 -13.68 90.38 -13.73 80.01 C-13.77 70.97 -13.8 61.93 -13.8 52.89 C-13.81 48.1 -13.82 43.32 -13.85 38.53 C-13.88 34.02 -13.89 29.52 -13.88 25.01 C-13.88 23.36 -13.89 21.71 -13.91 20.05 C-13.93 17.79 -13.92 15.54 -13.91 13.28 C-13.91 12.01 -13.92 10.75 -13.92 9.45 C-13.34 5.56 -12.17 3.92 -9.43 1.15 C-6.42 -0.36 -3.31 -0 0 0 Z " fill="#E75839" transform="translate(355.43,382.85)"/>
<path d="M0 0 C0.49 -0.01 0.49 -0.01 2.95 -0.03 C13.14 -0.15 23.34 -0.19 33.53 -0.24 C38.37 -0.26 43.2 -0.3 48.04 -0.36 C53.88 -0.43 59.71 -0.47 65.55 -0.48 C67.78 -0.49 70 -0.51 72.22 -0.55 C75.34 -0.59 78.46 -0.59 81.58 -0.59 C82.49 -0.61 83.41 -0.63 84.35 -0.66 C90.31 -0.58 93.34 0.77 97.56 4.95 C97.92 5.33 97.92 5.33 99.74 7.22 C101.12 8.57 102.5 9.91 103.88 11.25 C106.62 13.92 109.32 16.62 112.03 19.32 C113.26 20.54 114.48 21.75 115.7 22.97 C119.69 26.93 123.67 30.89 127.65 34.86 C129.02 36.23 130.4 37.6 131.77 38.96 C137.48 44.66 143.19 50.35 148.9 56.04 C157.07 64.19 165.25 72.34 173.43 80.47 C179.2 86.2 184.96 91.93 190.71 97.68 C194.14 101.11 197.58 104.53 201.02 107.95 C204.26 111.15 207.48 114.37 210.69 117.59 C211.88 118.78 213.06 119.95 214.26 121.13 C215.88 122.73 217.48 124.34 219.09 125.96 C219.54 126.41 219.54 126.41 221.83 128.69 C223.74 131.22 223.74 131.22 224.22 133.93 C223.74 136.22 223.74 136.22 220.74 138.22 C218.87 138.51 218.87 138.51 216.72 138.56 C215.91 138.58 215.09 138.61 214.25 138.63 C213.36 138.64 212.47 138.66 211.55 138.67 C211.08 138.69 211.08 138.69 208.7 138.74 C198.81 138.96 188.93 139.06 179.04 139.14 C174.36 139.19 169.69 139.27 165.01 139.39 C159.34 139.53 153.68 139.61 148.01 139.63 C145.87 139.65 143.72 139.7 141.57 139.77 C123.1 140.34 123.1 140.34 116.21 134.49 C113.68 132 111.33 129.38 108.99 126.71 C106.4 123.84 103.67 121.13 100.9 118.43 C100.37 117.91 99.84 117.39 99.29 116.86 C98.17 115.76 97.05 114.67 95.93 113.58 C92.94 110.66 89.98 107.72 87.03 104.78 C86.41 104.16 85.8 103.55 85.16 102.92 C83.25 101.02 81.34 99.12 79.43 97.22 C78.79 96.58 78.15 95.94 77.48 95.29 C71.42 89.25 65.36 83.22 59.3 77.18 C51.59 69.49 43.88 61.82 36.14 54.15 C30.68 48.74 25.23 43.31 19.78 37.87 C16.54 34.63 13.29 31.4 10.03 28.18 C6.98 25.16 3.94 22.13 0.91 19.09 C-0.2 17.98 -1.32 16.87 -2.45 15.76 C-3.98 14.26 -5.49 12.74 -7 11.21 C-7.85 10.36 -8.7 9.52 -9.58 8.64 C-11.26 6.22 -11.26 6.22 -11.09 3.48 C-9.25 -1.51 -4.62 0.04 0 0 Z " fill="#193335" transform="translate(453.26,598.78)"/>
</svg>
